<svg id="instagram" xmlns="http://www.w3.org/2000/svg" width="50" height="50" viewBox="0 0 50 50">
  <path id="Path_10" data-name="Path 10" d="M216.57,211.785A4.785,4.785,0,1,1,211.785,207,4.785,4.785,0,0,1,216.57,211.785Zm0,0" transform="translate(-186.785 -186.785)" fill="#fff"/>
  <path id="Path_11" data-name="Path 11" d="M158.444,138.791a4.754,4.754,0,0,0-2.724-2.724,7.943,7.943,0,0,0-2.665-.494c-1.514-.069-1.968-.084-5.8-.084s-4.287.014-5.8.084a7.948,7.948,0,0,0-2.665.494,4.756,4.756,0,0,0-2.725,2.724,7.945,7.945,0,0,0-.494,2.666c-.069,1.514-.084,1.968-.084,5.8s.015,4.287.084,5.8a7.943,7.943,0,0,0,.494,2.665,4.754,4.754,0,0,0,2.724,2.724,7.933,7.933,0,0,0,2.666.494c1.514.069,1.967.084,5.8.084s4.288-.014,5.8-.084a7.933,7.933,0,0,0,2.666-.494,4.754,4.754,0,0,0,2.724-2.724,7.95,7.95,0,0,0,.494-2.665c.069-1.514.084-1.968.084-5.8s-.014-4.287-.084-5.8A7.933,7.933,0,0,0,158.444,138.791Zm-11.191,15.838a7.372,7.372,0,1,1,7.372-7.372A7.372,7.372,0,0,1,147.253,154.629Zm7.663-13.312a1.723,1.723,0,1,1,1.723-1.723A1.723,1.723,0,0,1,154.916,141.317Zm0,0" transform="translate(-122.253 -122.257)" fill="#fff"/>
  <path id="Path_12" data-name="Path 12" d="M25,0A25,25,0,1,0,50,25,25,25,0,0,0,25,0ZM39.269,30.919A10.532,10.532,0,0,1,38.6,34.4a7.34,7.34,0,0,1-4.2,4.2,10.54,10.54,0,0,1-3.484.667c-1.531.07-2.02.087-5.919.087s-4.388-.017-5.919-.087A10.54,10.54,0,0,1,15.6,38.6a7.34,7.34,0,0,1-4.2-4.2,10.53,10.53,0,0,1-.667-3.484c-.071-1.531-.087-2.02-.087-5.919s.016-4.388.087-5.919A10.533,10.533,0,0,1,11.4,15.6a7.345,7.345,0,0,1,4.2-4.2,10.542,10.542,0,0,1,3.485-.667c1.531-.07,2.02-.087,5.919-.087s4.388.017,5.919.087A10.544,10.544,0,0,1,34.4,11.4a7.342,7.342,0,0,1,4.2,4.2,10.531,10.531,0,0,1,.668,3.485c.07,1.531.086,2.02.086,5.919S39.339,29.388,39.269,30.919Zm0,0" fill="#fff"/>
</svg>
