<svg xmlns="http://www.w3.org/2000/svg" width="207.015" height="50" viewBox="0 0 207.015 50">
  <g id="Logo" transform="translate(0 -0.541)">
    <path id="Path_1" data-name="Path 1" d="M98.646,12.595a94.124,94.124,0,0,1,18.39,7.018,73.66,73.66,0,0,1,13.522,8.768,1.785,1.785,0,0,1,.432.512c-2.312,2.768-4.544,5.6-6.917,8.317-.146.164-.3.313-.467.464a95.719,95.719,0,0,0-6.3-7.458c-4-4.354-8.272-8.45-12.663-12.414C102.674,16.028,100.688,14.281,98.646,12.595Z" transform="translate(-82.303 -11.571)" fill="#fff"/>
    <path id="Path_2" data-name="Path 2" d="M6.422,30.767a127.9,127.9,0,0,1,9.365-15.6q3.428,2.784,6.655,5.8a21.583,21.583,0,0,1,1.951,1.981c-4.563,3.839-8.948,7.9-13.18,12.106A135.177,135.177,0,0,0,0,47.783c.013-.138.037-.408.05-.53A80.209,80.209,0,0,1,6.414,30.78Z" transform="translate(0 -13.72)" fill="#fff"/>
    <path id="Path_3" data-name="Path 3" d="M174.261,116.661c.666-.891,1.395-1.734,2.01-2.651a9.137,9.137,0,0,1-.2,1.164,77.838,77.838,0,0,1-5.984,16.439,112.375,112.375,0,0,1-8.869,15.113c-2.917-2.447-5.775-4.945-8.651-7.424a54.974,54.974,0,0,0,5.549-4.624A176.641,176.641,0,0,0,174.261,116.7Z" transform="translate(-127.287 -96.184)" fill="#fff"/>
    <path id="Path_4" data-name="Path 4" d="M8.774,164.085c7.307,9.243,16.253,17.014,25.376,24.393A93.611,93.611,0,0,1,7.512,177c-2.1-1.31-4.165-2.683-6.135-4.187C3.839,169.9,6.379,167.054,8.774,164.085Z" transform="translate(-1.148 -137.963)" fill="#fff"/>
    <path id="Path_6" data-name="Path 6" d="M39.287-23.5v-.106c0-10.46-8.071-18.477-19.752-18.477H5.04V-4.916h14.5C31.216-4.916,39.287-13.039,39.287-23.5Zm-8.548.106c0,6.584-4.513,11.1-11.2,11.1H13.217V-34.7h6.318c6.69,0,11.2,4.619,11.2,11.2ZM74.861-4.916V-12.19H54.685v-7.805H72.206v-7.274H54.685v-7.54H74.6v-7.274H46.561V-4.916Zm39.928-6-5.2-5.257c-2.92,2.655-5.522,4.354-9.77,4.354-6.372,0-10.778-5.31-10.778-11.681v-.106c0-6.372,4.513-11.575,10.778-11.575,3.717,0,6.637,1.593,9.5,4.195l5.2-6c-3.451-3.4-7.646-5.734-14.655-5.734A18.89,18.89,0,0,0,80.489-23.5v.106A18.761,18.761,0,0,0,99.551-4.278,19,19,0,0,0,114.789-10.915Zm42.742,6L141.6-42.348h-7.54L118.135-4.916h8.336l3.4-8.336h15.716l3.4,8.336ZM142.665-20.473h-9.876l4.938-12.053Z" transform="translate(49.483 54.534)" fill="#fff"/>
    <path id="Path_5" data-name="Path 5" d="M5.227-2.728,1.909-7.012H.9V-.817H1.971V-5.224L5.387-.817H6.3V-7.012H5.227Zm7.256-4.283H7.891V-.817h4.637V-1.79H8.979V-3.454h3.106v-.973H8.979V-6.038h3.5ZM16-2.419,14.519-7.012H13.342L15.5-.773h.938l1.522-4.451L19.484-.773h.938l2.159-6.239H21.439L19.961-2.419,18.439-7.029h-.92Zm14.4-1.009V-.817h1.088V-7.012H30.395v2.575H27.439V-7.012H26.351V-.817h1.088V-3.428ZM36.28-7.056H35.271L32.545-.817H33.66l.637-1.5h2.929l.628,1.5h1.15Zm.549,3.779H34.7l1.062-2.478Zm8.239-1.982V-.817h1.088V-7.012H45L43.111-4.082,41.226-7.012H40.067V-.817h1.071V-5.242l1.938,2.9h.035Zm7.478.327a2.152,2.152,0,0,0-.164-.858,1.855,1.855,0,0,0-.469-.655,2.08,2.08,0,0,0-.743-.42,3.08,3.08,0,0,0-.978-.146H47.748V-.817h1.088V-2.808h1.23a3.3,3.3,0,0,0,.965-.137,2.367,2.367,0,0,0,.788-.4,1.891,1.891,0,0,0,.531-.664A2.071,2.071,0,0,0,52.545-4.932Zm-1.106.027a1.011,1.011,0,0,1-.358.81,1.459,1.459,0,0,1-.978.305H48.837V-6.02H50.1a1.558,1.558,0,0,1,.973.279A.989.989,0,0,1,51.439-4.905Zm3.142-.487a.658.658,0,0,1,.265-.527,1.145,1.145,0,0,1,.743-.217,2.279,2.279,0,0,1,.841.164,3.8,3.8,0,0,1,.841.473l.584-.823a3.646,3.646,0,0,0-1.022-.58,3.549,3.549,0,0,0-1.226-.2,2.7,2.7,0,0,0-.85.128,1.952,1.952,0,0,0-.668.367,1.729,1.729,0,0,0-.438.571,1.686,1.686,0,0,0-.159.739,1.765,1.765,0,0,0,.137.734,1.406,1.406,0,0,0,.4.513,2.24,2.24,0,0,0,.646.354,7.437,7.437,0,0,0,.881.257,7.168,7.168,0,0,1,.7.2,1.778,1.778,0,0,1,.425.208.6.6,0,0,1,.212.243.75.75,0,0,1,.058.3.671.671,0,0,1-.3.575,1.35,1.35,0,0,1-.8.212A2.509,2.509,0,0,1,54.81-1.9a3.805,3.805,0,0,1-.911-.6l-.655.779a3.745,3.745,0,0,0,1.212.748,3.906,3.906,0,0,0,1.372.243,3.059,3.059,0,0,0,.894-.124,2.017,2.017,0,0,0,.7-.363,1.669,1.669,0,0,0,.456-.584,1.816,1.816,0,0,0,.164-.788,1.65,1.65,0,0,0-.128-.677,1.45,1.45,0,0,0-.376-.5,2.152,2.152,0,0,0-.624-.367,6.955,6.955,0,0,0-.863-.274q-.442-.106-.73-.2a1.8,1.8,0,0,1-.451-.212.651.651,0,0,1-.226-.248A.748.748,0,0,1,54.58-5.392Zm8.787,1.965V-.817h1.088V-7.012H63.367v2.575H60.412V-7.012H59.323V-.817h1.088V-3.428Zm2.743-3.584V-.817H67.2V-7.012Zm8,6.195L72.438-3.162a2.3,2.3,0,0,0,.6-.252,1.836,1.836,0,0,0,.465-.4,1.793,1.793,0,0,0,.305-.54,2.031,2.031,0,0,0,.111-.695,2.036,2.036,0,0,0-.159-.819,1.677,1.677,0,0,0-.456-.619,2.083,2.083,0,0,0-.726-.389,3.145,3.145,0,0,0-.96-.137H68.854V-.817h1.088V-2.976h1.363L72.827-.817Zm-1.3-4.168a.934.934,0,0,1-.345.761,1.421,1.421,0,0,1-.929.283H69.943V-6.02h1.584a1.513,1.513,0,0,1,.947.261A.92.92,0,0,1,72.81-4.985Zm7.035-2.026H75.252V-.817h4.637V-1.79H76.341V-3.454h3.106v-.973H76.341V-6.038h3.5Z" transform="translate(53.65 7.641)" fill="#fff"/>
  </g>
</svg>
